HIERARCHY
ROOT hip
{
	OFFSET 0.000000 0.000000 0.000000 
	CHANNELS 6 Xposition Yposition Zposition Xrotation Zrotation Yrotation
	JOINT abdomen
	{
		OFFSET 0.000000 3.402643 0.000000 
		CHANNELS 3 Xrotation Zrotation Yrotation
		JOINT chest
		{
			OFFSET 0.000000 8.438565 -0.680529 
			CHANNELS 3 Xrotation Zrotation Yrotation
			JOINT neck
			{
				OFFSET 0.000000 10.207942 -0.272212 
				CHANNELS 3 Xrotation Zrotation Yrotation
				JOINT head
				{
					OFFSET 0.000000 3.130431 0.000000 
					CHANNELS 3 Xrotation Zrotation Yrotation
					End Site
					{
						OFFSET 0.000000 3.130435 0.000000 
					}
				}
			}
			JOINT lCollar
			{
				OFFSET 3.470700 6.669187 -0.816635 
				CHANNELS 3 Yrotation Zrotation Xrotation
				JOINT lShldr
				{
					OFFSET 3.198488 0.000000 0.000000 
					CHANNELS 3 Zrotation Yrotation Xrotation
					JOINT lForeArm
					{
						OFFSET 10.139888 0.000000 0.000000 
						CHANNELS 3 Yrotation Zrotation Xrotation
						JOINT lHand
						{
							OFFSET 8.370511 0.000000 0.000000 
							CHANNELS 3 Zrotation Yrotation Xrotation
							End Site
							{
								OFFSET 4.083176 0.000000 0.000000 
							}
						}
					}
				}
			}
			JOINT rCollar
			{
				OFFSET -3.470700 6.669187 -0.816635 
				CHANNELS 3 Yrotation Zrotation Xrotation
				JOINT rShldr
				{
					OFFSET -3.198488 0.000000 0.000000 
					CHANNELS 3 Zrotation Yrotation Xrotation
					JOINT rForeArm
					{
						OFFSET -10.139888 0.000000 0.000000 
						CHANNELS 3 Yrotation Zrotation Xrotation
						JOINT rHand
						{
							OFFSET -8.370511 0.000000 0.000000 
							CHANNELS 3 Zrotation Yrotation Xrotation
							End Site
							{
								OFFSET -4.083176 0.000000 0.000000 
							}
						}
					}
				}
			}
		}
	}
	JOINT lThigh
	{
		OFFSET 5.308129 -1.633274 1.361059 
		CHANNELS 3 Xrotation Zrotation Yrotation
		JOINT lShin
		{
			OFFSET -2.041588 -20.007561 0.000000 
			CHANNELS 3 Xrotation Zrotation Yrotation
			JOINT lFoot
			{
				OFFSET 0.000000 -19.190928 -1.224953 
				CHANNELS 3 Xrotation Yrotation Zrotation
				End Site
				{
					OFFSET 0.000000 -2.449906 4.627600 
				}
			}
		}
	}
	JOINT rThigh
	{
		OFFSET -5.308129 -1.633274 1.361059 
		CHANNELS 3 Xrotation Zrotation Yrotation
		JOINT rShin
		{
			OFFSET 2.041588 -20.007561 0.000000 
			CHANNELS 3 Xrotation Zrotation Yrotation
			JOINT rFoot
			{
				OFFSET 0.000000 -19.190928 -1.224953 
				CHANNELS 3 Xrotation Yrotation Zrotation
				End Site
				{
					OFFSET 0.000000 -2.449906 4.627600 
				}
			}
		}
	}
}
MOTION
Frames: 10
Frame Time: 0.033333
-49.875942 46.159145 -53.477501 1.582340 -1.132381 62.439240 0.000000 0.000000 0.000000 -1.229821 6.980830 2.654351 -8.603516 0.000000 0.000000 25.991812 -1.416569 15.015324 -2.957607 -0.090307 -0.002318 -78.814278 12.776168 0.303371 -66.746826 -44.021755 -8.669872 35.514439 -23.385088 -6.353481 2.957607 0.090307 -0.002334 73.985916 2.349968 3.946327 61.395737 25.828362 2.503489 -55.570530 36.362267 10.865475 -10.224265 17.986698 10.298288 10.576883 -5.047729 2.543812 3.046477 -3.318784 -17.396080 10.744117 -15.757040 -27.082424 3.188266 7.136672 4.791272 -6.192958 -6.997557 5.545321 
-49.870956 46.165039 -53.485432 1.592119 -1.151899 62.379906 0.000000 0.000000 0.000000 -1.239660 6.980803 2.614101 -8.603516 0.000000 0.000000 26.041021 -1.462775 15.302222 -2.957607 -0.090307 -0.002318 -78.842552 12.755181 0.303103 -66.735588 -43.994061 -8.664269 35.511551 -23.355911 -6.333947 2.957607 0.090307 -0.002334 74.006508 2.321655 3.965568 61.411488 25.829386 2.518650 -55.600681 36.369530 10.855989 -10.192414 17.960758 10.290984 10.571568 -5.059942 2.563241 3.015697 -3.265156 -17.390642 10.720640 -15.771062 -27.042042 3.188276 7.136702 4.801019 -6.196126 -6.977190 5.554538 
-49.867672 46.165718 -53.497444 1.601886 -1.151893 62.330887 0.000000 0.000000 0.000000 -1.239660 6.980803 2.575038 -8.603516 0.000000 0.000000 26.031633 -1.509440 15.561287 -2.957607 -0.090307 -0.002318 -78.861061 12.734688 0.302933 -66.717339 -43.974716 -8.651617 35.520382 -23.345367 -6.324327 2.957607 0.090307 -0.002334 74.026314 2.312859 3.975053 61.407452 25.840481 2.511270 -55.619934 36.367893 10.846410 -10.175277 17.967192 10.322932 10.551164 -5.057139 2.565056 3.028040 -3.221646 -17.384583 10.691616 -15.800348 -26.994913 3.209398 7.159137 4.803128 -6.204735 -6.972737 5.523989 
-49.862457 46.169003 -53.503105 1.611659 -1.161650 62.291348 0.000000 0.000000 0.000000 -1.239634 6.971040 2.545950 -8.603516 0.000000 0.000000 26.022497 -1.584063 15.792067 -2.957607 -0.090307 -0.002318 -78.879906 12.723968 0.312515 -66.707870 -43.959381 -8.652026 35.529217 -23.334827 -6.324477 2.957607 0.090307 -0.002334 74.036369 2.303579 3.984676 61.419773 25.838446 2.509008 -55.630833 36.376785 10.846501 -10.163222 17.951532 10.323477 10.540765 -5.056761 2.575633 3.029887 -3.189484 -17.383978 10.660015 -15.818163 -26.975822 3.209865 7.169708 4.793464 -6.192145 -6.944076 5.547571 
-49.853848 46.174782 -53.517269 1.621439 -1.181168 62.202705 0.000000 0.000000 0.000000 -1.239634 6.971040 2.458060 -8.603516 0.000000 0.000000 26.023500 -1.695876 16.362465 -2.957607 -0.090307 -0.002318 -78.917282 12.682935 0.292649 -66.641602 -43.941654 -8.606102 35.547844 -23.323469 -6.324777 2.957607 0.090307 -0.002334 74.065521 2.285460 4.042842 61.407429 25.855816 2.506065 -55.692398 36.401020 10.817771 -10.135459 17.935431 10.307309 10.510232 -5.077786 2.625198 3.016315 -3.128963 -17.354532 10.599163 -15.865112 -26.909554 3.221429 7.153308 4.784526 -6.182711 -6.927358 5.566082 
-49.848183 46.174782 -53.531544 1.640980 -1.190918 62.133656 0.000000 0.000000 0.000000 -1.249446 6.961252 2.408256 -8.603516 0.000000 0.000000 26.005405 -1.845157 16.921803 -2.957607 -0.090307 -0.002318 -78.954994 12.651678 0.284677 -66.616898 -43.931141 -8.596163 35.555710 -23.303198 -6.301526 2.957607 0.090307 -0.002334 74.095200 2.267374 4.071716 61.381611 25.888195 2.543442 -55.761044 36.405003 10.789137 -10.106752 17.917742 10.310604 10.471741 -5.068545 2.648632 3.028595 -3.053820 -17.348011 10.513340 -15.925044 -26.822638 3.270570 7.172976 4.760318 -6.170701 -6.894711 5.581983 
-49.836739 46.177612 -53.545818 1.640991 -1.210441 62.064735 0.000000 0.000000 0.000000 -1.239608 6.961277 2.370377 -8.603516 0.000000 0.000000 25.977659 -1.994574 17.373825 -2.957607 -0.090307 -0.002318 -78.954117 12.641971 0.304217 -66.621590 -43.899136 -8.610651 35.561661 -23.263481 -6.282143 2.957607 0.090307 -0.002334 74.114471 2.258547 4.110495 61.372711 25.923981 2.557012 -55.788643 36.392841 10.769889 -10.057718 17.917587 10.364303 10.444955 -5.077396 2.630949 3.016903 -3.015391 -17.346497 10.393569 -15.991466 -26.724678 3.366676 7.180201 4.721422 -6.158733 -6.856022 5.577953 
-49.828239 46.174782 -53.554317 1.650765 -1.220197 62.005653 0.000000 0.000000 0.000000 -1.239583 6.951514 2.351054 -8.603516 0.000000 0.000000 25.891727 -2.172694 17.819805 -2.957607 -0.090307 -0.002318 -78.952370 12.612737 0.314016 -66.620270 -43.876511 -8.630815 35.558777 -23.234306 -6.282139 2.957607 0.090307 -0.002334 74.122894 2.278517 4.129892 61.364674 25.930849 2.551726 -55.766853 36.375053 10.789230 -10.049047 17.929506 10.401606 10.430935 -5.084916 2.650648 3.004570 -3.024096 -17.329826 10.312339 -16.045275 -26.665886 3.431103 7.191669 4.718737 -6.164045 -6.851601 5.589882 
-49.822578 46.171947 -53.562817 1.660551 -1.249475 61.955765 0.000000 0.000000 0.000000 -1.229745 6.951540 2.362002 -8.603516 0.000000 0.000000 25.776510 -2.342017 18.299719 -2.957607 -0.090307 -0.002318 -78.960922 12.592758 0.323707 -66.602684 -43.857655 -8.634678 35.575485 -23.203495 -6.278587 2.957607 0.090307 -0.002334 74.121391 2.297993 4.159191 61.348042 25.928041 2.561540 -55.704018 36.341106 10.808191 -10.039452 17.939821 10.461392 10.421183 -5.103392 2.630597 3.010389 -3.006693 -17.313046 10.188340 -16.078623 -26.582336 3.484020 7.197646 4.694313 -6.147335 -6.822334 5.593159 
-49.814075 46.171947 -53.565647 1.670338 -1.278754 61.905865 0.000000 0.000000 0.000000 -1.229745 6.951540 2.381533 -8.603516 0.000000 0.000000 25.690741 -2.511147 18.739981 -2.957607 -0.090307 -0.002318 -78.959702 12.573276 0.333496 -66.586769 -43.851166 -8.637805 35.582401 -23.173498 -6.278733 2.957607 0.090307 -0.002334 74.119720 2.317458 4.197858 61.356655 25.907009 2.556790 -55.621933 36.308804 10.842521 -10.038820 17.938089 10.483914 10.386504 -5.108929 2.662740 3.007617 -2.997978 -17.310562 10.085809 -16.121897 -26.490244 3.529643 7.185040 4.640637 -6.157134 -6.828108 5.600964 
